<svg id="Layer_1" data-name="Layer 1" xmlns="http://www.w3.org/2000/svg" viewBox="0 0 580 386"><title>a</title><path d="M383.46884,129.79129a2.26406,2.26406,0,0,1-1.79818-1.77424,109.15111,109.15111,0,0,0-215.339,12.90224,2.09621,2.09621,0,0,1-.879,1.516,80.22521,80.22521,0,0,0,28.2964,144.78765,96.67344,96.67344,0,0,1,.49194-23.90141A56.94051,56.94051,0,0,1,178.56471,161.7003a25.3024,25.3024,0,0,0,10.967-18.61972,85.37861,85.37861,0,0,1,85.45325-77.7603,86.26537,86.26537,0,0,1,83.91329,67.61591A25.44529,25.44529,0,0,0,379.42071,152.733,56.9547,56.9547,0,0,1,385.759,263.34577a95.17017,95.17017,0,0,1,1.00811,13.89411,97.71994,97.71994,0,0,1-.51617,10.0073,80.23889,80.23889,0,0,0-2.78207-157.45588Z"/><path d="M337.64919,231.19762H287.377V213.13027a2.63109,2.63109,0,0,0-3.94666-2.27844l-51.33477,29.63827a2.6309,2.6309,0,0,0,0,4.55717l51.33477,29.63827a2.63121,2.63121,0,0,0,3.94666-2.27873V254.33974h50.27222a11.57106,11.57106,0,0,0,0-23.14212Z"/><path d="M296.56969,279.7945a2.63121,2.63121,0,0,0-3.94666,2.27873v18.06707H242.35081a11.57106,11.57106,0,0,0,0,23.14212H292.623v18.06707a2.63121,2.63121,0,0,0,3.94666,2.27873l51.33477-29.63827a2.6309,2.6309,0,0,0,0-4.55717Z"/></svg>